<?xml version="1.0" encoding="utf-8"?>
<!-- Generator: Adobe Illustrator 24.1.0, SVG Export Plug-In . SVG Version: 6.00 Build 0)  -->
<svg version="1.1" id="Layer_1" xmlns="http://www.w3.org/2000/svg" xmlns:xlink="http://www.w3.org/1999/xlink" x="0px" y="0px"
	 viewBox="0 0 31.1 26.3" style="enable-background:new 0 0 31.1 26.3;" xml:space="preserve">
<style type="text/css">
	.st0{fill:#FF4B26;}
	.st1{fill:#FFFFFF;}
</style>
<g>
	<path class="st0" d="M18.9,0.1L18.9,0.1l-2.5,4.1c-5.1,0-9.2,0-9.2,0.1l4.5,7.8l-1,1.6l-1.3,2.2L0.4,0.1C0.4,0.1,2.8,0,6.2,0h0.9
		C10.6,0,14.9,0.1,18.9,0.1z"/>
	<path class="st0" d="M18.9,0.1l-2.5,4.1c-5.1,0-9.2,0-9.2,0.1l4.5,7.8l-1,1.6l-1.3,2.2L0.4,0.1C0.4,0.1,2.8,0,6.2,0h0.9
		C11.1,0.1,15.4,0.1,18.9,0.1z"/>
	<path class="st0" d="M18.9,0.1L18.9,0.1l-2.5,4.1c-5.1,0-9.2,0-9.2,0.1l4.5,7.8l-1,1.6l-1.3,2.2L0.4,0.1C0.4,0.1,2.8,0,6.2,0h0.9
		C10.6,0,14.9,0.1,18.9,0.1z"/>
	<path class="st1" d="M30.7,0.1l-2.4,4.1l-10.7,18L15.3,26l-2.3-4l2.3-3.8l8.4-14.1l2.4-4.1C28.9,0.1,30.7,0.1,30.7,0.1z"/>
</g>
</svg>
